<svg id="artbreeder-icon" viewBox="0 0 33 32" xmlns="http://www.w3.org/2000/svg">
	<path d="M31.404 19.8283C30.2958 17.9083 28.3885 16.7365 26.3456 16.4881H26.3471C23.3569 16.1266 21.5513 12.9982 22.7329 10.2283H22.7315C23.5391 8.33511 23.4769 6.09888 22.3687 4.17888C20.4981 0.937467 16.3532 -0.17218 13.1118 1.69841C10.1075 3.43347 8.93576 7.11959 10.2699 10.2311H10.267C11.4501 12.9982 9.64305 16.1266 6.65434 16.4881C5.77199 16.5939 4.89529 16.8763 4.07646 17.3478C0.83505 19.2184 -0.274597 23.3633 1.59599 26.6048C3.46658 29.8462 7.61152 30.9558 10.8529 29.0852C11.6718 28.6123 12.3536 27.9953 12.8859 27.2838C14.6929 24.8753 18.3056 24.8753 20.1127 27.2838V27.2796C22.14 29.9916 25.9179 30.8203 28.9221 29.0852C32.1635 27.2146 33.2732 23.0697 31.4026 19.8283H31.404ZM21.0346 18.0099L21.0303 18.017V18.0198L18.7758 21.9233C17.7946 23.6485 15.2082 23.6485 14.227 21.9233L11.9682 18.0114C10.9645 16.2975 12.2576 14.0598 14.244 14.0711H18.7602C20.7466 14.0584 22.0398 16.2975 21.036 18.0099H21.0346Z"></path>
</svg>