<svg t="1714374684517" class="icon" viewBox="0 0 1024 1024" version="1.1" xmlns="http://www.w3.org/2000/svg" p-id="9525" width="200" height="200"><path d="M512 0C228.352 0 0 228.352 0 512s228.352 512 512 512 512-228.352 512-512S795.648 0 512 0z m119.466667 184.874667c5.546667-0.170667 10.581333 5.802667 7.296 11.861333l-129.877334 238.08a7.978667 7.978667 0 0 0 6.997334 11.776h224.426666c7.253333 0 10.752 8.832 5.461334 13.781333l-393.386667 367.146667c-7.04 6.570667-17.493333-2.688-11.861333-10.496l186.197333-256.896a7.978667 7.978667 0 0 0-6.442667-12.629333H282.752a7.978667 7.978667 0 0 1-5.589333-13.653334l349.013333-346.581333a7.765333 7.765333 0 0 1 5.333333-2.389333z" fill="#4fc8c4" p-id="9526"></path></svg>