<svg t="1714371067721" class="icon" viewBox="0 0 1024 1024" version="1.1" xmlns="http://www.w3.org/2000/svg" p-id="48970" width="256" height="256"><path d="M515.0924 150.83087h66.995074v453.333334h-66.995074v-453.333334z" fill="#120653" opacity=".996" p-id="48971"></path><path d="M307.407671 186.561576h69.228243v138.456486h-69.228243v-138.456486z" fill="#130754" opacity=".93" p-id="48972"></path><path d="M202.448721 298.220033h66.995074v453.333333h-66.995074v-453.333333z" fill="#130653" opacity=".995" p-id="48973"></path><path d="M410.133451 298.220033h69.228243v138.456486h-69.228243v-138.456486z" fill="#120753" opacity=".974" p-id="48974"></path><path d="M307.407671 360.748768h69.228243v66.995074h-69.228243v-66.995074z" fill="#FFCA00" opacity=".907" p-id="48975"></path><path d="M307.407671 465.707718h69.228243v138.456486h-69.228243v-138.456486z" fill="#130754" opacity=".943" p-id="48976"></path><path d="M412.36662 472.407225c21.599212-0.370706 43.187258 0 64.761904 1.116585a495.667521 495.667521 0 0 1 2.23317 65.878489h-69.228243a522.170772 522.170772 0 0 1 2.233169-66.995074z" fill="#E70389" opacity=".969" p-id="48977"></path><path d="M410.133451 577.366174h69.228243v138.456486h-69.228243v-138.456486z" fill="#120753" opacity=".967" p-id="48978"></path></svg>