<svg t="1714370265908" class="icon" viewBox="0 0 1920 1024" version="1.1" xmlns="http://www.w3.org/2000/svg" p-id="34158" width="200" height="200"><path d="M1731.885705 0l-68.181016 136.08733s-29.283224-54.061337-58.236806-78.839451c-27.64188-23.569424-63.291322-45.435697-108.397377-40.710824-43.725678 4.560052-93.014069 43.01832-126.136252 106.960342-37.579222 72.796008-50.380332 146.580943-50.709974 227.947651-0.384583 114.001295 41.754691 191.796878 41.754691 191.796878s-9.669507-36.205713-8.069369-97.409299c1.043867-38.073686 1.263629-79.773437 30.045522-165.645256 24.173769-71.807081 79.388854-130.043887 128.175915-140.043037 37.853924-7.856475 62.027693-2.197615 99.332213 24.118828 44.172068 31.151197 70.763214 87.41015 70.763214 87.41015l69.279823-132.571145zM0 5.274277L276.185307 937.28294h11.4276l172.567744-577.698131 172.677625 577.698131h11.489408L880.804226 139.163991l11.159765-18.899492H1086.446081l-161.140144 278.492803v55.215086h46.094981q88.591368 0 130.043888 54.061337 35.601368 46.149922 35.656308 130.098828 0 75.90014-33.348812 130.043887-33.376283 54.061337-81.751291 54.061337-46.067511 0-79.993198-30.491912-33.870746-30.409502-54.665681-83.454443l-94.332639 39.122704q28.672013 87.43762 88.618839 138.669528 59.747667 51.176967 140.372679 51.204437 107.051337 0 174.325837-86.311342 67.32944-86.283872 67.301969-212.893986 0-102.436345-45.985101-178.384557-46.149922-75.817729-135.80576-104.771311l170.363262-293.448606V5.054515H799.71222l-166.799004 567.431147L466.059272 5.109456h-120.868843l55.215085 185.252105-112.799475 382.007353L120.868843 5.109456z m1277.535602 650.494139s17.086459 55.324966 27.744893 78.83945c6.153323 13.563407 25.052815 54.940383 51.863722 90.823321 24.997874 33.678455 73.565173 91.420798 147.295168 104.441669a187.484058 187.484058 0 0 0 137.076257-28.129476c12.581348-8.069369 39.062613-30.16227 55.764489-48.127776 17.525982-18.67973 34.063038-42.468916 43.238081-56.753416 6.647786-10.493613 17.580923-31.645661 17.580923-31.645661l-17.635863-91.915261s-30.601794 54.768695-49.666106 75.872669c-19.119253 21.097107-53.237231 58.181866-95.376506 76.744848-42.194214 18.514909-64.225308 22.147842-105.931927 18.075386-41.699751-3.94884-80.377781-28.074536-93.893115-38.073685-13.563407-10.109031-48.182716-39.721897-67.741492-67.411851-19.613717-27.525132-50.270451-82.795158-50.270451-82.795158z" fill="#005A9C" p-id="34159"></path></svg>